<?xml version="1.0" encoding="utf-8"?>
<!-- Generator: Adobe Illustrator 19.0.0, SVG Export Plug-In . SVG Version: 6.00 Build 0)  -->
<svg version="1.0" id="Isolation_Mode" xmlns="http://www.w3.org/2000/svg" xmlns:xlink="http://www.w3.org/1999/xlink" x="0px"
	 y="0px" viewBox="0 0 32 32" style="enable-background:new 0 0 32 32;" xml:space="preserve">
<style type="text/css">
	.st0{fill:none;stroke:#000000;stroke-width:1.5;stroke-miterlimit:10;}
</style>
<g id="Page-1">
	<g id="icon-6-smiling-face">
		<path id="smiling-face" class="st0" d="M16.5,29C23.4,29,29,23.4,29,16.5C29,9.6,23.4,4,16.5,4C9.6,4,4,9.6,4,16.5
			C4,23.4,9.6,29,16.5,29L16.5,29z M16.5,28C22.9,28,28,22.9,28,16.5C28,10.1,22.9,5,16.5,5C10.1,5,5,10.1,5,16.5
			C5,22.9,10.1,28,16.5,28L16.5,28z M12,14c0.6,0,1-0.4,1-1c0-0.6-0.4-1-1-1c-0.6,0-1,0.4-1,1C11,13.6,11.4,14,12,14L12,14z M21,14
			c0.6,0,1-0.4,1-1c0-0.6-0.4-1-1-1c-0.6,0-1,0.4-1,1C20,13.6,20.4,14,21,14L21,14z M16.5,22C13,22,11,20,11,20v1c0,0,2,2,5.5,2
			c3.5,0,5.5-2,5.5-2v-1C22,20,20,22,16.5,22L16.5,22z"/>
	</g>
</g>
</svg>
