<?xml version="1.0" encoding="utf-8"?>
<!-- Generator: Adobe Illustrator 19.0.0, SVG Export Plug-In . SVG Version: 6.00 Build 0)  -->
<svg version="1.0" id="Layer_1" xmlns="http://www.w3.org/2000/svg" xmlns:xlink="http://www.w3.org/1999/xlink" x="0px" y="0px"
	 viewBox="0 0 24 24" style="enable-background:new 0 0 24 24;" xml:space="preserve">
<path d="M22.5,6c-2-2-5.2-2-7.2,0l-8.7,8.6c-1.2,1.2-1.2,3.1,0,4.3c1.2,1.2,3.1,1.2,4.3,0l7.2-7.2c0.4-0.4,0.4-1,0-1.4
	c-0.4-0.4-1-0.4-1.4,0l-7.2,7.2c-0.4,0.4-1,0.4-1.4,0c-0.4-0.4-0.4-1,0-1.4l8.7-8.7c1.2-1.2,3.1-1.2,4.3,0c1.2,1.2,1.2,3.1,0,4.3
	l-8.7,8.6c-2,2-5.2,2-7.2,0s-2-5.2,0-7.2L16.7,1.7c0.4-0.4,0.4-1,0-1.4c-0.4-0.4-1-0.4-1.4,0L3.7,11.8c-2.8,2.8-2.8,7.3,0,10.1
	c2.8,2.8,7.3,2.8,10.1,0l8.7-8.6C24.4,11.3,24.4,8,22.5,6z"/>
</svg>
