<?xml version="1.0" encoding="utf-8"?>
<!-- Generator: Adobe Illustrator 19.0.0, SVG Export Plug-In . SVG Version: 6.00 Build 0)  -->
<svg version="1.0" id="Layer_1" xmlns="http://www.w3.org/2000/svg" xmlns:xlink="http://www.w3.org/1999/xlink" x="0px" y="0px"
	 viewBox="0 0 17.6 7.2" style="enable-background:new 0 0 17.6 7.2;" xml:space="preserve">
<style type="text/css">
	.st0{fill-rule:evenodd;clip-rule:evenodd;}
</style>
<g>
	<g id="XMLID_32_">
		<path id="XMLID_33_" class="st0" d="M14.6,2.2c-0.9,0-1.7,0.7-1.7,1.5c0,0.8,0.7,1.5,1.7,1.5c0.9,0,1.7-0.7,1.7-1.5
			C16.3,2.9,15.5,2.2,14.6,2.2z M8.8,2.2c-0.9,0-1.7,0.7-1.7,1.5c0,0.8,0.7,1.5,1.7,1.5c0.9,0,1.7-0.7,1.7-1.5
			C10.4,2.9,9.7,2.2,8.8,2.2z M2.9,2.2C2,2.2,1.3,2.9,1.3,3.7c0,0.8,0.7,1.5,1.7,1.5c0.9,0,1.7-0.7,1.7-1.5C4.6,2.9,3.8,2.2,2.9,2.2
			z"/>
	</g>
</g>
<g id="XMLID_128_">
</g>
<g id="XMLID_129_">
</g>
<g id="XMLID_130_">
</g>
<g id="XMLID_131_">
</g>
<g id="XMLID_132_">
</g>
<g id="XMLID_133_">
</g>
</svg>
