<?xml version="1.0" encoding="utf-8"?>
<!-- Generator: Adobe Illustrator 19.0.0, SVG Export Plug-In . SVG Version: 6.00 Build 0)  -->
<svg version="1.0" id="Layer_1" xmlns="http://www.w3.org/2000/svg" xmlns:xlink="http://www.w3.org/1999/xlink" x="0px" y="0px"
	 viewBox="0 0 973.1 1024" style="enable-background:new 0 0 973.1 1024;" xml:space="preserve">
<path d="M960,832L710.9,582.9C746.4,524.8,768,457.2,768,384C768,172,596,0,384,0C172,0,0,172,0,384c0,212,172,384,384,384
	c73.2,0,140.8-21.6,198.9-57L832,960c17.5,17.5,46.5,17.4,64,0l64-64C977.5,878.5,977.5,849.5,960,832z M384,640
	c-141.4,0-256-114.6-256-256s114.6-256,256-256s256,114.6,256,256S525.4,640,384,640z"/>
</svg>
