<?xml version="1.0" encoding="utf-8"?><svg width="1586" height="1536" viewBox="0 0 1586 1536" xmlns="http://www.w3.org/2000/svg" xmlns:xlink="http://www.w3.org/1999/xlink"><svg version="1" viewBox="0 0 24 24" width="24" height="24" id="attach" xmlns="http://www.w3.org/2000/svg"><path d="M22.5 6c-2-2-5.2-2-7.2 0l-8.7 8.6c-1.2 1.2-1.2 3.1 0 4.3 1.2 1.2 3.1 1.2 4.3 0l7.2-7.2c.4-.4.4-1 0-1.4-.4-.4-1-.4-1.4 0l-7.2 7.2c-.4.4-1 .4-1.4 0-.4-.4-.4-1 0-1.4l8.7-8.7c1.2-1.2 3.1-1.2 4.3 0 1.2 1.2 1.2 3.1 0 4.3l-8.7 8.6c-2 2-5.2 2-7.2 0s-2-5.2 0-7.2L16.7 1.7c.4-.4.4-1 0-1.4-.4-.4-1-.4-1.4 0L3.7 11.8c-2.8 2.8-2.8 7.3 0 10.1s7.3 2.8 10.1 0l8.7-8.6c1.9-2 1.9-5.3 0-7.3z"/></svg><svg version="1" viewBox="0 0 512 512" width="512" height="512" id="bell" xmlns="http://www.w3.org/2000/svg"><path d="M381.7 225.9c0-97.6-52.5-130.8-101.6-138.2 0-.5.1-1 .1-1.6 0-12.3-10.9-22.1-24.2-22.1s-23.8 9.8-23.8 22.1c0 .6 0 1.1.1 1.6-49.2 7.5-102 40.8-102 138.4 0 113.8-28.3 126-66.3 158h384c-37.8-32.1-66.3-44.4-66.3-158.2zM256.2 448c26.8 0 48.8-19.9 51.7-43H204.5c2.8 23.1 24.9 43 51.7 43z"/></svg><svg version="1" id="emoji" viewBox="0 0 32 32" width="32" height="32" xmlns="http://www.w3.org/2000/svg"><style>.cst0{fill:none;stroke:#000;stroke-width:1.5;stroke-miterlimit:10}</style><g id="cPage-1"><g id="cicon-6-smiling-face"><path id="csmiling-face" class="cst0" d="M16.5 29C23.4 29 29 23.4 29 16.5S23.4 4 16.5 4 4 9.6 4 16.5 9.6 29 16.5 29zm0-1C22.9 28 28 22.9 28 16.5S22.9 5 16.5 5 5 10.1 5 16.5 10.1 28 16.5 28zM12 14c.6 0 1-.4 1-1s-.4-1-1-1-1 .4-1 1 .4 1 1 1zm9 0c.6 0 1-.4 1-1s-.4-1-1-1-1 .4-1 1 .4 1 1 1zm-4.5 8C13 22 11 20 11 20v1s2 2 5.5 2 5.5-2 5.5-2v-1s-2 2-5.5 2z"/></g></g></svg><svg version="1" id="more" viewBox="0 0 17.6 7.2" width="17.6" height="7.2" xmlns="http://www.w3.org/2000/svg"><style>.dst0{fill-rule:evenodd;clip-rule:evenodd}</style><g id="dXMLID_32_"><path id="dXMLID_33_" class="dst0" d="M14.6 2.2c-.9 0-1.7.7-1.7 1.5s.7 1.5 1.7 1.5c.9 0 1.7-.7 1.7-1.5s-.8-1.5-1.7-1.5zm-5.8 0c-.9 0-1.7.7-1.7 1.5s.7 1.5 1.7 1.5c.9 0 1.7-.7 1.7-1.5-.1-.8-.8-1.5-1.7-1.5zm-5.9 0c-.9 0-1.6.7-1.6 1.5S2 5.2 3 5.2c.9 0 1.7-.7 1.7-1.5-.1-.8-.9-1.5-1.8-1.5z"/></g></svg><svg version="1" viewBox="0 0 80 80" width="80" height="80" id="phone" xmlns="http://www.w3.org/2000/svg"><path d="M46.1 46.1c-7.9 8-17 15.5-20.7 11.9-5.2-5.2-8.4-9.7-19.8-.5S3 72.8 8 77.8c5.8 5.8 27.4.3 48.8-21.1C78.1 35.4 83.6 13.8 77.8 8c-5-5-11.2-13.8-20.3-2.4-9.2 11.4-4.7 14.6.5 19.8 3.6 3.7-3.9 12.8-11.9 20.7z"/></svg><svg version="1" id="send" viewBox="0 0 48 48" width="48" height="48" xmlns="http://www.w3.org/2000/svg"><style>.fst0{fill:none}</style><path d="M4 42l42-18L4 6v14l30 4-30 4v14z"/><path class="fst0" d="M0 0h48v48H0V0z"/></svg><svg version="1" id="user" viewBox="0 0 612 792" width="612" height="792" xmlns="http://www.w3.org/2000/svg"><style>.gst0{fill:none;stroke:#000;stroke-width:40;stroke-miterlimit:10}</style><circle cx="382.5" cy="294" r="102"/><path d="M382.5 447c-155.5 0-204 102-204 102v51h408v-51s-48.5-102-204-102z"/><path class="gst0" d="M127.5 268.5v204M229.5 370.5h-204"/></svg><svg version="1" viewBox="0 0 24 24" width="24" height="24" id="video" xmlns="http://www.w3.org/2000/svg"><g transform="translate(-323 -587)"><path d="M324 594v10c0 2 2 2 2 2h11.9s2 0 2-2v-10c0-2-2-2-2-2H326s-2 0-2 2zm17.1 8.1l4.9 3.9v-14l-4.9 3.9v6.2z"/></g></svg><svg version="1" viewBox="0 0 973.1 1024" width="973.1" height="1024" id="zoom" xmlns="http://www.w3.org/2000/svg"><path d="M960 832L710.9 582.9C746.4 524.8 768 457.2 768 384 768 172 596 0 384 0S0 172 0 384s172 384 384 384c73.2 0 140.8-21.6 198.9-57L832 960c17.5 17.5 46.5 17.4 64 0l64-64c17.5-17.5 17.5-46.5 0-64zM384 640c-141.4 0-256-114.6-256-256s114.6-256 256-256 256 114.6 256 256-114.6 256-256 256z"/></svg></svg>
